# xmcd
#
# Track frame offsets: 
#        150
#        17563
#        32988
#        43750
#        55693
#        70650
#        84408
#        99365
#        110268
#        123720
#
# Disc length: 1903 seconds
#
# Revision: 1
# Processed by: cddbd v1.5.2PL0 Copyright (c) Steve Scherf et al.
# Submitted via: ExactAudioCopy v1.0b3
#
DISCID=7a076d0a
DTITLE=Don Williams - Portrait
DYEAR=1985
DGENRE=Country
TTITLE0=It only rains on me (1980)
TTITLE1=We've never tried it with each other (1979)
TTITLE2=We're all the way (1979)
TTITLE3=Circle driveway (1979)
TTITLE4=You get to me (1979)
TTITLE5=Steal my heart away (1979)
TTITLE6=Love's endless war (1979)
TTITLE7=Woman you should be in movies (1979)
TTITLE8=Love me over again (1979)
TTITLE9=Good ole boys like me (1980)
EXTD=
EXTT0=
EXTT1=
EXTT2=
EXTT3=
EXTT4=
EXTT5=
EXTT6=
EXTT7=
EXTT8=
EXTT9=
PLAYORDER=
